# xmcd CD database file
#
# Track frame offsets:
#	150
#	18576
#	34368
#
# Disc length: 656 seconds
#
# Revision: 0
# Processed by: cddbd v1.5.1PL2 Copyright (c) Steve Scherf et al.
# Submitted via: CDex 1.60beta1
#
DISCID=20028e03
DTITLE=Garage Lover! - High-Pretty
DYEAR=1900
DGENRE=未分類 (日本)
TTITLE0=Seven -High Pretty-Otenba Mix- 〜from おてんば恋娘
TTITLE1=Ensemble-Requiem for Lili Levinas-　〜from assemble:Theme song of Mika Mikli and song that images Lili Levinas
TTITLE2=Six -西洋紅茶館Mix- 〜from 西洋紅茶間〜ChineseTea
EXTD=
EXTT0=
EXTT1=
EXTT2=
PLAYORDER=
